<?xml version="1.0" standalone="no"?>
<!DOCTYPE svg PUBLIC "-//W3C//DTD SVG 20010904//EN"
 "http://www.w3.org/TR/2001/REC-SVG-20010904/DTD/svg10.dtd">
<svg version="1.0" xmlns="http://www.w3.org/2000/svg"
 width="700.000000pt" height="700.000000pt" viewBox="0 0 700.000000 700.000000"
 preserveAspectRatio="xMidYMid meet">
<metadata>
Created by potrace 1.11, written by Peter Selinger 2001-2013
</metadata>
<g transform="translate(0.000000,700.000000) scale(0.100000,-0.100000)"
fill="#000000" stroke="none">
<path d="M1680 4938 c-18 -13 -43 -36 -54 -51 -20 -28 -21 -41 -24 -411 l-3
-383 -192 -6 c-156 -4 -204 -9 -257 -26 -100 -31 -178 -79 -250 -151 -228
-228 -228 -592 0 -820 73 -73 151 -120 255 -153 65 -21 89 -22 356 -22 l286 0
35 27 c73 56 69 -8 66 1010 l-3 913 -23 30 c-51 65 -133 83 -192 43z m-80
-1438 l0 -290 -144 0 c-79 0 -168 5 -197 10 -132 25 -229 143 -229 280 0 96
43 180 120 233 69 47 109 55 298 56 l152 1 0 -290z"/>
<path d="M5180 4938 c-18 -13 -43 -36 -54 -51 -21 -28 -21 -31 -21 -950 l0
-922 23 -33 c47 -65 56 -67 367 -67 261 0 285 2 350 22 104 33 182 80 255 153
228 228 228 592 0 820 -72 72 -150 120 -250 151 -53 17 -101 22 -257 26 l-192
6 -3 386 -3 387 -23 29 c-51 65 -133 83 -192 43z m561 -1158 c132 -25 229
-143 229 -280 0 -137 -97 -255 -229 -280 -29 -5 -118 -10 -197 -10 l-144 0 0
290 0 290 144 0 c79 0 168 -5 197 -10z"/>
<path d="M2694 4080 c-131 -20 -240 -75 -334 -170 -117 -116 -172 -247 -172
-410 0 -163 55 -294 172 -410 75 -76 146 -119 251 -152 70 -22 89 -23 355 -23
l280 0 41 27 c74 49 74 48 71 578 l-3 465 -23 33 c-46 64 -60 67 -337 69 -137
0 -273 -2 -301 -7z m366 -581 l0 -291 -177 3 c-171 4 -180 5 -235 32 -102 50
-160 143 -160 257 0 105 50 195 137 245 59 35 107 43 283 44 l152 1 0 -291z"/>
<path d="M3758 4081 c-48 -16 -86 -50 -103 -94 -14 -37 -16 -97 -13 -507 l3
-465 23 -33 c70 -98 219 -80 261 31 7 18 11 163 11 404 l0 375 178 -3 c170 -4
179 -5 234 -32 62 -31 116 -88 145 -153 14 -32 18 -85 22 -314 5 -245 8 -278
25 -306 56 -93 202 -86 251 11 19 37 20 60 20 315 0 260 -1 279 -23 349 -33
105 -76 176 -152 251 -73 74 -144 118 -246 151 -63 20 -91 22 -339 25 -148 2
-282 -1 -297 -5z"/>
</g>
</svg>
